<?xml version="1.0" standalone="no"?>
<!DOCTYPE svg PUBLIC "-//W3C//DTD SVG 20010904//EN"
 "http://www.w3.org/TR/2001/REC-SVG-20010904/DTD/svg10.dtd">
<svg version="1.0" xmlns="http://www.w3.org/2000/svg"
 width="228.000000pt" height="256.000000pt" viewBox="0 0 228.000000 256.000000"
 preserveAspectRatio="xMidYMid meet">

<g transform="translate(0.000000,256.000000) scale(0.100000,-0.100000)"
fill="#C70039" stroke="none">
<path d="M888 2489 c-10 -5 -18 -16 -18 -23 0 -9 17 -11 63 -8 70 5 72 5 64
27 -7 18 -81 21 -109 4z"/>
<path d="M1259 2435 c-31 -8 -90 -29 -130 -46 -84 -37 -319 -157 -333 -170
-14 -13 -5 -12 209 16 105 14 235 25 289 25 96 0 100 1 142 33 24 17 51 46 60
64 16 27 16 34 3 49 -36 44 -131 55 -240 29z"/>
<path d="M855 2427 c-61 -20 -97 -42 -133 -79 -35 -37 -79 -145 -64 -160 5 -5
46 11 103 42 52 28 154 80 228 117 114 56 131 67 115 76 -29 17 -202 19 -249
4z"/>
<path d="M1185 2234 c-263 -28 -544 -72 -585 -92 -67 -33 -72 -101 -24 -387
49 -301 74 -335 243 -335 137 0 532 69 608 106 78 39 90 126 53 401 -40 303
-42 305 -172 309 -46 1 -101 0 -123 -2z m-109 -86 c70 -54 85 -84 72 -137 -11
-42 -62 -111 -82 -111 -23 0 -95 59 -112 91 -15 29 -15 35 1 76 19 49 60 103
80 103 7 0 25 -10 41 -22z m256 -120 c18 -15 46 -156 55 -281 6 -82 5 -84 -23
-116 -54 -59 -268 -112 -466 -115 -154 -2 -158 4 -197 280 -25 176 -22 190 55
196 99 8 124 0 179 -57 59 -62 82 -75 128 -75 46 0 82 30 117 100 21 41 38 61
57 68 39 14 76 14 95 0z"/>
<path d="M1012 2128 c-21 -28 -42 -78 -42 -104 0 -34 63 -96 93 -92 28 4 57
48 64 94 5 36 1 43 -33 77 -40 38 -64 46 -82 25z m72 -39 c30 -35 31 -42 12
-58 -25 -21 -89 49 -71 79 11 18 33 11 59 -21z m11 -89 c12 -20 -6 -50 -31
-50 -18 0 -24 5 -24 23 0 13 3 27 7 30 10 10 41 8 48 -3z"/>
<path d="M1209 1893 c-13 -16 -12 -17 3 -4 10 7 31 11 47 9 17 -2 28 -1 25 4
-9 15 -61 8 -75 -9z"/>
<path d="M799 1883 c-13 -15 -12 -15 8 -2 18 11 29 11 55 2 30 -11 31 -11 14
2 -26 20 -60 19 -77 -2z"/>
<path d="M1198 1845 c-38 -21 -61 -69 -54 -111 9 -44 57 -84 103 -84 50 0 103
54 103 104 0 74 -88 127 -152 91z m40 -42 c6 -10 6 -28 1 -40 -14 -39 -79 -25
-79 17 0 38 61 56 78 23z m80 -97 c-2 -13 -10 -21 -23 -21 -23 0 -33 34 -14
45 20 13 40 -1 37 -24z"/>
<path d="M850 1813 c-8 -3 -27 -17 -42 -31 -46 -43 -35 -122 22 -155 35 -21
62 -21 100 -2 37 19 50 43 50 90 0 47 -13 71 -50 90 -30 15 -53 18 -80 8z m30
-73 c0 -24 -24 -42 -52 -38 -18 2 -24 10 -26 36 -3 26 1 34 20 41 27 10 58
-11 58 -39z m70 -56 c11 -12 10 -18 -3 -32 -16 -15 -18 -15 -34 0 -13 14 -14
20 -3 32 7 9 16 16 20 16 4 0 13 -7 20 -16z"/>
<path d="M1036 1635 c8 -38 22 -55 45 -55 21 0 39 28 39 62 0 21 -5 23 -45 23
-45 0 -45 0 -39 -30z"/>
<path d="M1293 1644 c-9 -25 10 -36 35 -18 12 8 22 19 22 25 0 16 -50 10 -57
-7z"/>
<path d="M835 1580 c-4 -7 -3 -16 3 -22 14 -14 47 -6 47 12 0 18 -40 26 -50
10z"/>
<path d="M1845 2075 c-65 -33 -82 -91 -48 -162 17 -37 178 -213 194 -213 19 0
163 147 190 195 56 97 28 185 -58 185 -38 0 -80 -21 -96 -47 -11 -18 -34 -16
-41 2 -7 20 -66 55 -91 55 -11 0 -33 -7 -50 -15z"/>
<path d="M1547 2012 c-14 -16 -15 -29 -3 -130 7 -62 18 -118 24 -124 6 -6 22
-8 36 -4 19 5 28 16 37 49 15 55 4 185 -18 209 -21 23 -55 23 -76 0z"/>
<path d="M418 1869 c-24 -14 -22 -31 6 -58 30 -28 50 -99 42 -145 -4 -21 -18
-44 -34 -56 l-27 -22 24 -19 c31 -25 46 -24 70 7 39 49 22 233 -25 285 -19 21
-31 23 -56 8z"/>
<path d="M380 1790 c-17 -31 -7 -137 14 -158 48 -48 69 100 22 154 l-23 28
-13 -24z"/>
<path d="M1975 1651 c-7 -23 3 -71 16 -71 14 0 41 48 37 67 -5 26 -45 29 -53
4z"/>
<path d="M1905 1642 c-18 -13 -96 -111 -109 -137 -22 -42 -10 -72 32 -79 56
-9 106 -7 140 5 39 13 142 132 142 164 0 44 -51 40 -82 -7 -17 -26 -84 -66
-93 -56 -4 3 -1 16 5 28 24 46 -1 108 -35 82z"/>
<path d="M1695 1452 c-23 -21 -119 -53 -188 -63 l-74 -11 14 -41 c9 -24 12
-55 8 -78 l-6 -37 42 9 c62 14 170 74 213 118 45 46 56 104 21 109 -11 1 -25
-1 -30 -6z"/>
<path d="M1037 1391 c-185 -30 -167 -14 -221 -195 -44 -143 -46 -193 -10 -235
34 -41 132 -87 225 -107 133 -29 213 -1 259 91 23 46 25 60 23 170 -1 66 -10
160 -20 210 l-18 90 -40 1 c-22 1 -111 -10 -198 -25z m151 -160 c2 -56 -2
-106 -9 -123 -11 -28 -12 -28 -109 -28 -75 0 -100 3 -110 15 -18 21 -7 167 14
200 16 25 59 33 166 31 l45 -1 3 -94z m-203 -226 c0 -23 -34 -33 -45 -14 -13
20 1 40 24 37 13 -2 21 -10 21 -23z m115 0 c16 -19 6 -45 -19 -45 -23 0 -35
28 -20 46 15 18 24 18 39 -1z m115 -10 c0 -13 -8 -21 -22 -23 -17 -3 -23 2
-23 16 0 10 3 22 7 26 13 13 38 1 38 -19z"/>
<path d="M1313 1373 c3 -16 11 -61 18 -100 13 -68 15 -73 39 -73 14 0 31 5 38
12 26 26 4 158 -31 180 -7 4 -25 8 -41 8 -26 0 -28 -3 -23 -27z"/>
<path d="M731 1329 c-6 -17 -14 -60 -17 -95 -6 -54 -4 -65 10 -70 9 -3 23 -1
31 6 13 11 75 160 75 181 0 5 -20 9 -44 9 -40 0 -45 -3 -55 -31z"/>
<path d="M645 1310 c-21 -17 -45 -39 -52 -50 -7 -10 -54 -51 -103 -91 -50 -39
-90 -73 -90 -76 0 -2 5 -13 10 -24 14 -24 42 -24 115 1 82 28 120 60 139 117
17 49 33 153 24 153 -3 0 -22 -14 -43 -30z"/>
<path d="M245 1056 c-70 -15 -102 -47 -155 -151 -30 -60 -32 -67 -18 -81 23
-23 49 -10 81 40 26 42 65 76 86 76 6 0 6 -13 0 -34 -13 -46 3 -89 32 -84 15
2 34 26 61 73 43 76 54 111 44 150 -7 29 -33 31 -131 11z"/>
<path d="M745 928 c-20 -59 -65 -267 -63 -292 2 -25 12 -35 46 -54 37 -21 45
-22 63 -10 19 12 159 230 159 247 0 5 -26 18 -57 30 -31 12 -76 38 -100 57
-30 25 -44 31 -48 22z"/>
<path d="M174 847 c-20 -43 -13 -70 18 -65 20 3 23 9 22 41 -2 57 -19 68 -40
24z"/>
<path d="M1274 848 c-43 -31 -96 -47 -152 -48 -38 0 -40 19 19 -189 20 -73 42
-138 48 -144 12 -12 81 -11 94 2 16 16 38 202 35 306 l-3 103 -41 -30z"/>
<path d="M586 567 c-39 -51 -34 -76 25 -119 28 -21 69 -43 90 -50 34 -10 42
-9 60 8 12 10 28 34 36 53 13 30 12 35 -3 52 -9 10 -20 19 -25 19 -4 0 -35 16
-69 35 -34 19 -68 35 -75 35 -8 0 -25 -15 -39 -33z"/>
<path d="M537 421 c-51 -58 -51 -106 1 -174 22 -29 54 -75 71 -104 42 -69 83
-93 168 -99 92 -7 137 14 141 67 4 50 -28 85 -93 100 -83 19 -89 23 -108 78
-10 28 -28 58 -40 66 -107 75 -125 83 -140 66z"/>
<path d="M1235 433 c-80 -7 -85 -10 -85 -51 0 -65 15 -75 104 -70 86 4 106 17
106 69 0 31 -33 60 -65 57 -11 -1 -38 -3 -60 -5z"/>
<path d="M1310 288 c-25 -3 -66 -7 -92 -7 l-48 -1 0 -39 c0 -51 14 -87 38
-100 11 -6 78 -18 148 -27 195 -24 288 -8 313 55 14 33 9 58 -20 95 -26 33
-74 41 -154 25 -46 -9 -77 -10 -103 -3 -20 5 -57 6 -82 2z"/>
</g>
</svg>
