<?xml version="1.0" standalone="no"?>
<!DOCTYPE svg PUBLIC "-//W3C//DTD SVG 20010904//EN"
 "http://www.w3.org/TR/2001/REC-SVG-20010904/DTD/svg10.dtd">
<svg version="1.0" xmlns="http://www.w3.org/2000/svg" viewBox="0 0 225 225"
 preserveAspectRatio="xMidYMid meet">
<g transform="translate(0,225) scale(0.1,-0.1)"
fill="#875A7B" stroke="none">
<path d="M1032 1820 c-177 -24 -355 -126 -458 -263 -100 -132 -147 -272 -147
-432 0 -116 19 -199 67 -300 70 -148 173 -252 321 -325 109 -54 189 -73 310
-73 390 0 698 308 698 698 0 121 -19 201 -73 310 -73 148 -177 251 -325 321
-121 58 -265 81 -393 64z m193 -294 c151 -40 260 -150 300 -301 20 -79 19
-140 -5 -217 -33 -109 -108 -201 -202 -249 -293 -150 -632 76 -605 403 21 249
273 428 512 364z"/>
</g>
</svg>
