<?xml version="1.0" encoding="iso-8859-1"?>
<!-- Uploaded to: SVG Repo, www.svgrepo.com, Generator: SVG Repo Mixer Tools -->
<svg height="800px" width="800px" version="1.1" id="Layer_1" xmlns="http://www.w3.org/2000/svg" xmlns:xlink="http://www.w3.org/1999/xlink" 
	 viewBox="0 0 511.999 511.999" xml:space="preserve">
<path id="SVGCleanerId_0" style="fill:#9F8976;" d="M473.684,164.029C495.216,105.617,504.447,27.11,504,28.005
	c-20.546,41.092-44.391,59.108-69.415,92.145l-2.57-1.932c-40.323-31.297-98.356-50.212-176.015-50.212
	c-77.651,0-135.68,18.911-176.003,50.202l-2.71,1.768C52.309,87.045,28.512,69.026,8,28.005
	c-0.447-0.895,8.781,77.59,30.307,135.998h-0.078C17.753,196.333,8,234.767,8,276.004c0,114.876,111.033,208,247.999,208
	s247.999-93.124,247.999-208c0-41.225-9.748-79.651-30.212-111.976h-0.103V164.029z"/>
<g>
	<path id="SVGCleanerId_0_1_" style="fill:#9F8976;" d="M473.684,164.029C495.216,105.617,504.447,27.11,504,28.005
		c-20.546,41.092-44.391,59.108-69.415,92.145l-2.57-1.932c-40.323-31.297-98.356-50.212-176.015-50.212
		c-77.651,0-135.68,18.911-176.003,50.202l-2.71,1.768C52.309,87.045,28.512,69.026,8,28.005
		c-0.447-0.895,8.781,77.59,30.307,135.998h-0.078C17.753,196.333,8,234.767,8,276.004c0,114.876,111.033,208,247.999,208
		s247.999-93.124,247.999-208c0-41.225-9.748-79.651-30.212-111.976h-0.103V164.029z"/>
</g>
<path style="fill:#FFEBD2;" d="M307.634,314.004h-51.336h-51.336L25.283,347.006c25.669,88.005,111.23,88.005,136.897,88.005
	c25.669,0,68.448,40.002,94.117,40.002c25.669,0,68.448-40.002,94.117-40.002c25.668,0,111.229,0,136.897-88.005L307.634,314.004z"
	/>
<path style="fill:#CFBAA4;" d="M139.992,239.999l20.298,128.011c47.799-15.934,74.444,24.543,86.956,58.238
	c3.083,8.303,15.016,8.303,18.099,0c12.513-33.694,39.157-74.171,86.956-58.238l20.704-128.011
	C307.024,325.449,201.979,327.934,139.992,239.999z"/>
<path style="fill:#464655;" d="M280.298,379.008c0-13.256-10.746-24.001-24.001-24.001c-13.256,0-24.001,10.746-24.001,24.001
	c0,0,14.001,80.005,24.001,80.005C266.297,459.013,280.298,379.008,280.298,379.008z"/>
<g>
	<path style="fill:#DC9B5A;" d="M461.91,234.676c-7.823-34.34-25.342-62.98-47.323-81.684c-2.758-2.348-14.143,11.104-16.323,22.004
		c-10.158,50.789-58.926,115.006-91.261,150.008c0,0,24.146,34.776,35.002,46.003c14.141,14.623,35.58,14.17,54.734,9.806
		C448.437,369.034,477.615,303.606,461.91,234.676z"/>
	<path style="fill:#DC9B5A;" d="M110.247,174.996c-3.389-9.485-10.532-23.457-12.257-21.988
		c-21.973,18.705-39.484,47.337-47.307,81.668c-15.705,68.93,13.473,134.358,65.171,146.137c19.155,4.364,37.546,4.364,52.141-9.806
		c12.771-12.399,38.002-44.003,38.002-44.003C171.327,288.335,127.992,224.665,110.247,174.996z"/>
</g>
<g>
	<path style="fill:#FFCE56;" d="M376.304,344.009c26.512,0,48.003-21.491,48.003-48.003s-21.491-48.003-48.003-48.003
		c-3.833,0-7.556,0.462-11.13,1.311c-11.423,18.181-24.337,35.656-36.684,50.834C330.592,324.717,351.189,344.009,376.304,344.009z"
		/>
	<path style="fill:#FFCE56;" d="M88.286,296.006c0,26.512,21.491,48.003,48.003,48.003c24.949,0,45.445-19.034,47.776-43.371
		c-12.189-15.651-24.56-33.165-35.876-51.147c-3.806-0.971-7.792-1.488-11.9-1.488C109.778,248.003,88.286,269.495,88.286,296.006z"
		/>
</g>
<g>
	<path style="fill:#464655;" d="M393.716,290.717c1.096,11.068-8.129,20.294-19.198,19.197c-8.19-0.811-14.816-7.436-15.627-15.627
		c-1.096-11.068,8.129-20.294,19.198-19.197C386.28,275.902,392.905,282.527,393.716,290.717z"/>
	<path style="fill:#464655;" d="M153.702,290.217c1.096,11.068-8.129,20.294-19.198,19.197c-8.19-0.811-14.816-7.436-15.627-15.627
		c-1.096-11.068,8.129-20.294,19.198-19.197C146.266,275.401,152.891,282.027,153.702,290.217z"/>
</g>
<g>
	<path style="fill:#726765;" d="M8.282,31.99C7.63,30.827,19.235,171.96,64.285,208c22.495,17.996,52.581,28.402,87.411,39.755
		c-18.738-24.375-32.142-54.464-44.706-79.758C71.979,97.51,43.28,94.504,8.282,31.99z"/>
	<path style="fill:#726765;" d="M503.335,31.706c0.645-1.168-10.151,140.03-54.994,176.328
		c-22.392,18.125-52.418,28.703-87.182,40.255c18.598-24.481,31.83-54.647,44.249-80.013
		C440.015,97.589,468.696,94.419,503.335,31.706z"/>
</g>
<path d="M482.579,163.035c5.85-16.479,11.277-35.783,16.253-57.852c4.819-21.37,8.132-40.726,10.064-53.201
	c3.746-24.196,3.366-25.069,2.448-27.177c-1.24-2.848-4.021-4.725-7.126-4.807c-3.095-0.079-5.985,1.648-7.374,4.427
	c-13.14,26.28-27.832,42.96-43.385,60.618c-6.546,7.433-13.364,15.176-20.348,23.974c-44.016-32.524-103.567-49.013-177.111-49.013
	c-73.544,0-133.095,16.489-177.111,49.015c-6.984-8.8-13.802-16.542-20.348-23.975C42.988,67.386,28.296,50.706,15.156,24.426
	c-1.39-2.778-4.282-4.494-7.374-4.427c-3.105,0.082-5.886,1.959-7.126,4.807c-0.917,2.107-1.297,2.979,2.448,27.177
	c1.931,12.476,5.244,31.831,10.064,53.201c4.976,22.067,10.404,41.373,16.253,57.851C9.897,195.305,0,233.288,0,276.005
	c0,57.965,26.812,112.375,75.497,153.207c48.279,40.491,112.383,62.792,180.503,62.792s132.224-22.3,180.503-62.792
	c48.685-40.832,75.497-95.243,75.497-153.207C512,233.288,502.103,195.306,482.579,163.035z M465.466,95.621
	c8.635-9.804,17.015-19.318,25.083-30.3c-7.778,43.968-23.859,113.409-48.549,141.391c-2.923,3.313-2.607,8.368,0.706,11.293
	c3.312,2.922,8.369,2.606,11.293-0.706c7.435-8.426,14.441-20.133,20.99-35.017c13.948,27.309,21.01,58.755,21.01,93.724
	c0,44.868-17.824,86.331-47.878,119.735c-0.474,0.275-0.928,0.603-1.351,0.985c-13.056,11.813-25.251,17.05-37.261,16.013
	c-24.328-2.102-46.295-30.231-65.675-55.05c-9.288-11.894-18.06-23.126-26.913-31.497c-0.062-0.059-0.128-0.107-0.19-0.163
	c2.506-3.244,5.357-6.677,8.501-10.384c9.111,19.554,28.882,32.361,50.769,32.361c30.879,0,56-25.122,56-56
	c0-28.926-22.044-52.797-50.214-55.702c5.908-11.034,11.818-23.345,17.599-37.22C421.871,145.115,444.033,119.953,465.466,95.621z
	 M373.195,251.49c0.874,0.328,1.816,0.516,2.805,0.516c22.056,0,39.999,17.943,39.999,39.999S398.056,332.005,376,332.005
	c-16.926,0-32.086-10.716-37.725-26.664c-0.398-1.127-1.03-2.103-1.813-2.906C347.48,289.327,360.184,273.265,373.195,251.49z
	 M37.011,182.282c6.549,14.884,13.556,26.592,20.99,35.017c2.923,3.313,7.979,3.629,11.293,0.706
	c3.313-2.924,3.629-7.979,0.706-11.293c-24.689-27.981-40.77-97.423-48.549-141.391c8.067,10.981,16.449,20.496,25.084,30.3
	c21.432,24.332,43.596,49.494,66.081,103.461c5.781,13.875,11.691,26.187,17.599,37.22c-28.17,2.905-50.214,26.777-50.214,55.702
	c0,30.879,25.122,56,56,56c21.887,0,41.659-12.808,50.769-32.361c3.049,3.596,5.818,6.931,8.27,10.09
	c-0.183,0.145-0.363,0.294-0.535,0.457c-8.854,8.37-17.625,19.604-26.913,31.497c-19.38,24.819-41.348,52.948-65.675,55.05
	c-11.81,1.015-23.779-4.034-36.576-15.411c-30.931-33.676-49.34-75.739-49.34-121.323C16.001,241.035,23.063,209.59,37.011,182.282z
	 M138.804,251.49c13.011,21.775,25.715,37.836,36.732,50.943c-0.783,0.805-1.414,1.779-1.812,2.907
	c-5.638,15.948-20.798,26.664-37.725,26.664c-22.056,0-39.999-17.943-39.999-39.999s17.943-39.999,39.999-39.999
	C136.988,252.005,137.931,251.818,138.804,251.49z M101.34,428.806c0.651-0.031,1.303-0.07,1.953-0.127
	c31.273-2.701,55.518-33.75,76.91-61.144c8.323-10.659,16.214-20.763,23.722-28.196c2.645,5.358,4.074,10.692,4.074,16.664
	c0,4.418,3.582,8,8,8c4.418,0,8-3.582,8-8c0-21.435-12.279-35.805-29.274-55.694c-18.615-21.785-44.108-51.621-67.341-107.381
	c-12.964-31.112-26.105-53.374-38.85-71.142c41.192-30.38,97.499-45.78,167.464-45.78c69.964,0,126.273,15.401,167.465,45.78
	c-12.746,17.768-25.887,40.029-38.85,71.142c-23.233,55.76-48.727,85.596-67.341,107.381c-16.995,19.89-29.274,34.26-29.274,55.694
	c0,4.418,3.582,8,8,8c4.418,0,8-3.582,8-8c0-5.831,1.351-11.053,3.876-16.282c7.395,7.396,15.161,17.334,23.345,27.815
	c21.391,27.394,45.637,58.442,76.909,61.144c0.833,0.072,1.667,0.117,2.5,0.146c-41.797,29.416-95.768,47.178-154.631,47.178
	C197.123,476.004,143.142,458.234,101.34,428.806z"/>
<path d="M255.999,348.003c-17.645,0-32.001,14.355-32.001,32.001c0,0.462,0.04,0.924,0.12,1.379
	c0.036,0.202,3.596,20.468,8.347,40.469c2.828,11.909,5.534,21.456,8.043,28.379c3.346,9.231,7.539,17.773,15.49,17.773
	c7.951,0,12.144-8.543,15.49-17.773c2.509-6.922,5.215-16.47,8.043-28.379c4.75-20.001,8.311-40.267,8.346-40.469
	c0.08-0.455,0.12-0.917,0.12-1.379C288,362.359,273.645,348.003,255.999,348.003z M256.031,446.079
	c-2.108-5.579-5.14-15.357-9.029-32.354c-3.622-15.833-6.367-30.889-6.988-34.356c0.334-8.529,7.377-15.364,15.987-15.364
	c8.612,0,15.656,6.84,15.987,15.372C267.578,404.385,260.975,432.724,256.031,446.079z"/>
<path d="M136,316.005c13.234,0,24-10.767,24-24s-10.767-24-24-24c-13.234,0-24,10.767-24,24S122.766,316.005,136,316.005z
	 M136,284.005c4.411,0,7.999,3.588,7.999,7.999s-3.588,7.999-7.999,7.999c-4.411,0-7.999-3.588-7.999-7.999
	S131.589,284.005,136,284.005z"/>
<path d="M376,316.005c13.234,0,24-10.767,24-24s-10.767-24-24-24s-24,10.767-24,24S362.766,316.005,376,316.005z M376,284.005
	c4.411,0,7.999,3.588,7.999,7.999s-3.588,7.999-7.999,7.999S368,296.416,368,292.004S371.589,284.005,376,284.005z"/>
</svg>